<?xml version="1.0" encoding="utf-8"?>
<!-- Generator: Adobe Illustrator 25.4.1, SVG Export Plug-In . SVG Version: 6.00 Build 0)  -->
<svg version="1.1" id="Layer_1" xmlns="http://www.w3.org/2000/svg" xmlns:xlink="http://www.w3.org/1999/xlink" x="0px" y="0px"
	 viewBox="0 0 841.9 595.3" style="enable-background:new 0 0 841.9 595.3;" xml:space="preserve">
<style type="text/css">
	.st0{fill:url(#SVGID_1_);}
	.st1{fill:url(#SVGID_00000044888961067906208760000016685782261449697466_);}
	.st2{enable-background:new    ;}
	.st3{fill:none;stroke:#000000;stroke-width:12.1596;stroke-miterlimit:10;}
	.st4{fill:#FFFFFF;}
</style>
<radialGradient id="SVGID_1_" cx="421" cy="543.6001" r="277.8" gradientTransform="matrix(1 0 0 1 0 -246.0001)" gradientUnits="userSpaceOnUse">
	<stop  offset="0" style="stop-color:#504D4E"/>
	<stop  offset="1" style="stop-color:#231F20"/>
</radialGradient>
<circle class="st0" cx="421" cy="297.6" r="277.8"/>
<radialGradient id="SVGID_00000176033581577848554050000013434742979518416772_" cx="496.8885" cy="462.3428" r="112.1476" gradientTransform="matrix(1 0 0 1 0 -246.0001)" gradientUnits="userSpaceOnUse">
	<stop  offset="0" style="stop-color:#C2C4C6"/>
	<stop  offset="0.8523" style="stop-color:#231F20"/>
</radialGradient>
<circle style="fill:url(#SVGID_00000176033581577848554050000013434742979518416772_);" cx="499.1" cy="214.1" r="131"/>
<g>
	<g class="st2">
		<path d="M155.1,289.9c2.8-3.3,5-8.3,5.9-14.5c3.1-2.4,5.7-4.1,8.5,2.6c0,6.1-2.4,11.6-6.1,18c-6.8,10.5-15.7,16.4-25.6,20.1
			c-6.8,2.6-13.3,3.7-19.7,3.7c-30.9,0-47.3-29.5-47.3-60.6c0-8.7,1.7-18.8,5-28c15.5-44.6,56.5-79.4,93-99.1
			c24.3-12.3,53.6-19.7,78.3-19.7c23,0,44.7,5.3,62.2,16.9c27.4,18.8,39.4,50.6,39.4,83c0,53.4-36.8,110.9-89.5,120.6h0.2
			c2.8,0-3.1,0.4-4.8,0.6h-0.4l12.2,23.6c26.9,52.7,57.3,110.3,112,110.3c8.5,0,9.8-0.2,11.6-0.4c0,0,0.2-0.4,0.7-0.6
			c1.1-0.4,2.4-0.4,3.3,0.9c2.6,3.1-0.9,6.8-2.8,7.4c-12,2.6-23,3.9-33.3,3.9c-79.5,0-109.4-75.5-125.2-131.8
			c-13.4,46.4-33.5,86.2-74.8,86.2c-9.6,0-20.4-2-32.4-7c-3.7-3.9-3.9-7,2.9-9c4.8,1.3,9.4,1.8,14.9,1.8c30.2,0,44.7-31.1,52.7-61.5
			c11-42.9,17.9-98.3,20.8-138.5h-0.2c0-3.9-0.7-8.1-1.5-9.9l-1.1-3.1c0-2.8,3.3-4.2,7.4-4.4c21.9-1.1,26.1,11.6,26.5,25
			c0.4,27.1-3.7,56.2-9.6,92.3c39.6,0.9,64.6-45.7,64.6-91.9c0-44.2-22.8-87.3-78.3-87.3c-13.6,0-31.3,3.3-49.7,9.6
			c-37.4,16.2-72.7,48.8-79.9,91.2c-0.9,4.8-1.3,9.9-1.3,14.7c0,24.7,11.8,47.5,35.7,47.5h5.7c7.5-1.1,14.5-5,19.9-12.2l-0.2,0.2
			L155.1,289.9z"/>
		<path d="M367.8,378.6c-25.6,0-35-23.2-35-48.6c0-3.1,0-6.3,0.4-9.6v0.2c3.5-41.1,30.4-89.9,64.4-89.9c21.5,0,34.4,20.3,33.3,39.8
			c-3.1,27.6-36.3,46.4-61.1,51.7c-0.9,4.1-1.5,8.7-2,13.4c-0.2,1.8-0.2,4.2-0.2,6.1c0,10.7,2.9,21,14.9,21.9
			c18.8-0.6,33.5-25.4,42.9-41.1v0.2c5.9-10.1,11-20.6,15.1-28.7c1.8-3.7,4.8-8.8,6.6-12.3c1.3-0.6,2.4-0.9,2.8-0.9
			c2.2,0,3.5,1.5,4.4,3.5l-1.8,4.1c-4.4,9-11.2,22.5-19,35.9C420.5,348.1,402.1,378.6,367.8,378.6z M412.8,252.7
			c-14.4,0-36.5,43.8-40.5,59.7c16.6-2.2,48.1-18.2,49.9-40.3c0.6-4.6-0.4-9.2-2.8-14C417.6,254.3,415.2,252.7,412.8,252.7z"/>
		<path d="M471,378.6c-25.6,0-35-23.2-35-48.6c0-3.1,0-6.3,0.4-9.6v0.2c3.5-41.1,30.4-89.9,64.5-89.9c21.5,0,34.4,20.3,33.3,39.8
			c-3.1,27.6-36.3,46.4-61.1,51.7c-0.9,4.1-1.5,8.7-2,13.4c-0.2,1.8-0.2,4.2-0.2,6.1c0,10.7,2.9,21,14.9,21.9
			c18.8-0.6,33.5-25.4,42.9-41.1v0.2c5.9-10.1,11-20.6,15.1-28.7c1.8-3.7,4.8-8.8,6.6-12.3c1.3-0.6,2.4-0.9,2.8-0.9
			c2.2,0,3.5,1.5,4.4,3.5l-1.8,4.1c-4.4,9-11.2,22.5-19,35.9C523.6,348.1,505.2,378.6,471,378.6z M515.9,252.7
			c-14.4,0-36.5,43.8-40.5,59.7c16.6-2.2,48.1-18.2,49.9-40.3c0.6-4.6-0.4-9.2-2.8-14C520.7,254.3,518.3,252.7,515.9,252.7z"/>
		<path d="M676.5,284c2.9-2,4.8-1.5,7.9,1.5c-7.4,16.9-22.5,32-40.1,35c-6.4,0.9-14-0.4-20.4-4.1c-5.3,10.7-11,20.6-15.5,28.2
			c-8.7,14.5-21.4,31.1-40.9,30.4c-16.8-0.4-21.5-19.7-21.5-43.3c0-19.3,3.1-41.6,5.5-57.8c1.7-10.5,2.8-18.6,2.6-22.3
			c-0.2-3.3-1.3-5.9-2-7.7c-0.4-0.9-0.7-1.5-0.7-2.6c-0.4-3.3,2.6-4.6,5.9-5.2c4.8-0.7,11.2,0,13.4,0.9c7.7,3.9,11.6,12.9,12.2,22.3
			c0.4,9.8-1.3,22.3-2.9,29.5c-1.8,10.7-4.8,28.7-5.7,42.7c0,0.6-0.2,1.3-0.2,1.8c0,2.2-0.2,5.2-0.2,8.1c0,7.2,0.9,15.1,7.2,15.7
			c7.7,0.7,14.7-9,18.8-15.8c4.8-7.9,10.5-18,17.1-31.1c-6.6-8.7-9.8-22.7-9.8-37.2c0-33.1,15.5-71.8,38.7-70.2
			c10.5,0.7,14.4,7.7,14.4,18.2c0,16.6-10.1,41.8-20.6,64.8l-10.3,21.4c3.7,3.1,8.1,5,12.2,5c1.5,0,3.3-0.4,5.2-0.7
			c12.3-3.1,23.8-14.5,29.8-27.1L676.5,284z M620.3,285.1c0,6.6,0.6,11.6,1.8,14.5l7.5-14.2c9-18.2,21.9-47.9,21.9-62.8
			c0-5.9-1.7-9.6-5.9-10.5C631,208.3,620.3,257.5,620.3,285.1z"/>
		<path d="M689,378.6c-25.6,0-35-23.2-35-48.6c0-3.1,0-6.3,0.4-9.6v0.2c3.5-41.1,30.4-89.9,64.5-89.9c21.5,0,34.4,20.3,33.3,39.8
			c-3.1,27.6-36.3,46.4-61.1,51.7c-0.9,4.1-1.5,8.7-2,13.4c-0.2,1.8-0.2,4.2-0.2,6.1c0,10.7,2.9,21,14.9,21.9
			c18.8-0.6,33.5-25.4,42.9-41.1v0.2c5.9-10.1,11-20.6,15.1-28.7c1.8-3.7,4.8-8.8,6.6-12.3c1.3-0.6,2.4-0.9,2.8-0.9
			c2.2,0,3.5,1.5,4.4,3.5l-1.8,4.1c-4.4,9-11.2,22.5-19,35.9C741.6,348.1,723.2,378.6,689,378.6z M733.9,252.7
			c-14.4,0-36.5,43.8-40.5,59.7c16.6-2.2,48.1-18.2,49.9-40.3c0.6-4.6-0.4-9.2-2.8-14C738.7,254.3,736.3,252.7,733.9,252.7z"/>
	</g>
	<g class="st2">
		<path class="st3" d="M161.9,298.8c2.8-3.3,5-8.3,5.9-14.5c3.1-2.4,5.7-4.1,8.5,2.6c0,6.1-2.4,11.6-6.1,18
			c-6.8,10.5-15.7,16.4-25.6,20.1c-6.8,2.6-13.3,3.7-19.7,3.7c-30.9,0-47.3-29.5-47.3-60.6c0-8.7,1.7-18.8,5-28
			c15.5-44.6,56.5-79.4,93-99.1c24.3-12.3,53.6-19.7,78.3-19.7c23,0,44.7,5.3,62.2,16.9c27.4,18.8,39.4,50.6,39.4,83
			c0,53.4-36.8,110.9-89.5,120.6h0.2c2.8,0-3.1,0.4-4.8,0.6H261l12.2,23.6c26.9,52.7,57.3,110.3,112,110.3c8.5,0,9.8-0.2,11.6-0.4
			c0,0,0.2-0.4,0.7-0.6c1.1-0.4,2.4-0.4,3.3,0.9c2.6,3.1-0.9,6.8-2.8,7.4c-12,2.6-23,3.9-33.3,3.9c-79.5,0-109.4-75.5-125.2-131.8
			c-13.4,46.4-33.5,86.2-74.8,86.2c-9.6,0-20.4-2-32.4-7c-3.7-3.9-3.9-7,2.9-9c4.8,1.3,9.4,1.8,14.9,1.8c30.2,0,44.7-31.1,52.7-61.5
			c11-42.9,17.9-98.3,20.8-138.5h-0.2c0-3.9-0.7-8.1-1.5-9.9l-1.1-3.1c0-2.8,3.3-4.2,7.4-4.4c21.9-1.1,26.1,11.6,26.5,25
			c0.4,27.1-3.7,56.2-9.6,92.3c39.6,0.9,64.6-45.7,64.6-91.9c0-44.2-22.8-87.3-78.3-87.3c-13.6,0-31.3,3.3-49.7,9.6
			c-37.4,16.2-72.7,48.8-79.9,91.2c-0.9,4.8-1.3,9.9-1.3,14.7c0,24.7,11.8,47.5,35.7,47.5h5.7c7.5-1.1,14.5-5,19.9-12.2l-0.2,0.2
			L161.9,298.8z"/>
		<path class="st3" d="M374.5,387.6c-25.6,0-35-23.2-35-48.6c0-3.1,0-6.3,0.4-9.6v0.2c3.5-41.1,30.4-89.9,64.4-89.9
			c21.5,0,34.4,20.3,33.3,39.8c-3.1,27.6-36.3,46.4-61.1,51.7c-0.9,4.1-1.5,8.7-2,13.4c-0.2,1.8-0.2,4.2-0.2,6.1
			c0,10.7,2.9,21,14.9,21.9c18.8-0.6,33.5-25.4,42.9-41.1v0.2c5.9-10.1,11-20.6,15.1-28.7c1.8-3.7,4.8-8.8,6.6-12.3
			c1.3-0.6,2.4-0.9,2.8-0.9c2.2,0,3.5,1.5,4.4,3.5l-1.8,4.1c-4.4,9-11.2,22.5-19,35.9C427.2,357,408.8,387.6,374.5,387.6z
			 M419.5,261.6c-14.4,0-36.5,43.8-40.5,59.7c16.6-2.2,48.1-18.2,49.9-40.3c0.6-4.6-0.4-9.2-2.8-14
			C424.3,263.3,421.9,261.6,419.5,261.6z"/>
		<path class="st3" d="M477.7,387.6c-25.6,0-35-23.2-35-48.6c0-3.1,0-6.3,0.4-9.6v0.2c3.5-41.1,30.4-89.9,64.5-89.9
			c21.5,0,34.4,20.3,33.3,39.8c-3.1,27.6-36.3,46.4-61.1,51.7c-0.9,4.1-1.5,8.7-2,13.4c-0.2,1.8-0.2,4.2-0.2,6.1
			c0,10.7,2.9,21,14.9,21.9c18.8-0.6,33.5-25.4,42.9-41.1v0.2c5.9-10.1,11-20.6,15.1-28.7c1.8-3.7,4.8-8.8,6.6-12.3
			c1.3-0.6,2.4-0.9,2.8-0.9c2.2,0,3.5,1.5,4.4,3.5l-1.8,4.1c-4.4,9-11.2,22.5-19,35.9C530.3,357,511.9,387.6,477.7,387.6z
			 M522.6,261.6c-14.4,0-36.5,43.8-40.5,59.7c16.6-2.2,48.1-18.2,49.9-40.3c0.6-4.6-0.4-9.2-2.8-14
			C527.4,263.3,525,261.6,522.6,261.6z"/>
		<path class="st3" d="M683.2,292.9c2.9-2,4.8-1.5,7.9,1.5c-7.4,16.9-22.5,32-40.1,35c-6.4,0.9-14-0.4-20.4-4.1
			c-5.3,10.7-11,20.6-15.5,28.2c-8.7,14.5-21.4,31.1-40.9,30.4c-16.8-0.4-21.5-19.7-21.5-43.3c0-19.3,3.1-41.6,5.5-57.8
			c1.7-10.5,2.8-18.6,2.6-22.3c-0.2-3.3-1.3-5.9-2-7.7c-0.4-0.9-0.7-1.5-0.7-2.6c-0.4-3.3,2.6-4.6,5.9-5.2c4.8-0.7,11.2,0,13.4,0.9
			c7.7,3.9,11.6,12.9,12.2,22.3c0.4,9.8-1.3,22.3-2.9,29.5c-1.8,10.7-4.8,28.7-5.7,42.7c0,0.6-0.2,1.3-0.2,1.8
			c0,2.2-0.2,5.2-0.2,8.1c0,7.2,0.9,15.1,7.2,15.7c7.7,0.7,14.7-9,18.8-15.8c4.8-7.9,10.5-18,17.1-31.1c-6.6-8.7-9.8-22.7-9.8-37.2
			c0-33.1,15.5-71.8,38.7-70.2c10.5,0.7,14.4,7.7,14.4,18.2c0,16.6-10.1,41.8-20.6,64.8l-10.3,21.4c3.7,3.1,8.1,5,12.2,5
			c1.5,0,3.3-0.4,5.2-0.7c12.3-3.1,23.8-14.5,29.8-27.1L683.2,292.9z M627,294c0,6.6,0.6,11.6,1.8,14.5l7.5-14.2
			c9-18.2,21.9-47.9,21.9-62.8c0-5.9-1.7-9.6-5.9-10.5C637.7,217.2,627,266.4,627,294z"/>
		<path class="st3" d="M695.7,387.6c-25.6,0-35-23.2-35-48.6c0-3.1,0-6.3,0.4-9.6v0.2c3.5-41.1,30.4-89.9,64.5-89.9
			c21.5,0,34.4,20.3,33.3,39.8c-3.1,27.6-36.3,46.4-61.1,51.7c-0.9,4.1-1.5,8.7-2,13.4c-0.2,1.8-0.2,4.2-0.2,6.1
			c0,10.7,2.9,21,14.9,21.9c18.8-0.6,33.5-25.4,42.9-41.1v0.2c5.9-10.1,11-20.6,15.1-28.7c1.8-3.7,4.8-8.8,6.6-12.3
			c1.3-0.6,2.4-0.9,2.8-0.9c2.2,0,3.5,1.5,4.4,3.5l-1.8,4.1c-4.4,9-11.2,22.5-19,35.9C748.3,357,729.9,387.6,695.7,387.6z
			 M740.6,261.6c-14.4,0-36.5,43.8-40.5,59.7c16.6-2.2,48.1-18.2,49.9-40.3c0.6-4.6-0.4-9.2-2.8-14
			C745.4,263.3,743,261.6,740.6,261.6z"/>
	</g>
	<g class="st2">
		<path class="st3" d="M155.1,289.9c2.8-3.3,5-8.3,5.9-14.5c3.1-2.4,5.7-4.1,8.5,2.6c0,6.1-2.4,11.6-6.1,18
			c-6.8,10.5-15.7,16.4-25.6,20.1c-6.8,2.6-13.3,3.7-19.7,3.7c-30.9,0-47.3-29.5-47.3-60.6c0-8.7,1.7-18.8,5-28
			c15.5-44.6,56.5-79.4,93-99.1c24.3-12.3,53.6-19.7,78.3-19.7c23,0,44.7,5.3,62.2,16.9c27.4,18.8,39.4,50.6,39.4,83
			c0,53.4-36.8,110.9-89.5,120.6h0.2c2.8,0-3.1,0.4-4.8,0.6h-0.4l12.2,23.6c26.9,52.7,57.3,110.3,112,110.3c8.5,0,9.8-0.2,11.6-0.4
			c0,0,0.2-0.4,0.7-0.6c1.1-0.4,2.4-0.4,3.3,0.9c2.6,3.1-0.9,6.8-2.8,7.4c-12,2.6-23,3.9-33.3,3.9c-79.5,0-109.4-75.5-125.2-131.8
			c-13.4,46.4-33.5,86.2-74.8,86.2c-9.6,0-20.4-2-32.4-7c-3.7-3.9-3.9-7,2.9-9c4.8,1.3,9.4,1.8,14.9,1.8c30.2,0,44.7-31.1,52.7-61.5
			c11-42.9,17.9-98.3,20.8-138.5h-0.2c0-3.9-0.7-8.1-1.5-9.9l-1.1-3.1c0-2.8,3.3-4.2,7.4-4.4c21.9-1.1,26.1,11.6,26.5,25
			c0.4,27.1-3.7,56.2-9.6,92.3c39.6,0.9,64.6-45.7,64.6-91.9c0-44.2-22.8-87.3-78.3-87.3c-13.6,0-31.3,3.3-49.7,9.6
			c-37.4,16.2-72.7,48.8-79.9,91.2c-0.9,4.8-1.3,9.9-1.3,14.7c0,24.7,11.8,47.5,35.7,47.5h5.7c7.5-1.1,14.5-5,19.9-12.2l-0.2,0.2
			L155.1,289.9z"/>
		<path class="st3" d="M367.8,378.6c-25.6,0-35-23.2-35-48.6c0-3.1,0-6.3,0.4-9.6v0.2c3.5-41.1,30.4-89.9,64.4-89.9
			c21.5,0,34.4,20.3,33.3,39.8c-3.1,27.6-36.3,46.4-61.1,51.7c-0.9,4.1-1.5,8.7-2,13.4c-0.2,1.8-0.2,4.2-0.2,6.1
			c0,10.7,2.9,21,14.9,21.9c18.8-0.6,33.5-25.4,42.9-41.1v0.2c5.9-10.1,11-20.6,15.1-28.7c1.8-3.7,4.8-8.8,6.6-12.3
			c1.3-0.6,2.4-0.9,2.8-0.9c2.2,0,3.5,1.5,4.4,3.5l-1.8,4.1c-4.4,9-11.2,22.5-19,35.9C420.5,348.1,402.1,378.6,367.8,378.6z
			 M412.8,252.7c-14.4,0-36.5,43.8-40.5,59.7c16.6-2.2,48.1-18.2,49.9-40.3c0.6-4.6-0.4-9.2-2.8-14
			C417.6,254.3,415.2,252.7,412.8,252.7z"/>
		<path class="st3" d="M471,378.6c-25.6,0-35-23.2-35-48.6c0-3.1,0-6.3,0.4-9.6v0.2c3.5-41.1,30.4-89.9,64.5-89.9
			c21.5,0,34.4,20.3,33.3,39.8c-3.1,27.6-36.3,46.4-61.1,51.7c-0.9,4.1-1.5,8.7-2,13.4c-0.2,1.8-0.2,4.2-0.2,6.1
			c0,10.7,2.9,21,14.9,21.9c18.8-0.6,33.5-25.4,42.9-41.1v0.2c5.9-10.1,11-20.6,15.1-28.7c1.8-3.7,4.8-8.8,6.6-12.3
			c1.3-0.6,2.4-0.9,2.8-0.9c2.2,0,3.5,1.5,4.4,3.5l-1.8,4.1c-4.4,9-11.2,22.5-19,35.9C523.6,348.1,505.2,378.6,471,378.6z
			 M515.9,252.7c-14.4,0-36.5,43.8-40.5,59.7c16.6-2.2,48.1-18.2,49.9-40.3c0.6-4.6-0.4-9.2-2.8-14
			C520.7,254.3,518.3,252.7,515.9,252.7z"/>
		<path class="st3" d="M676.5,284c2.9-2,4.8-1.5,7.9,1.5c-7.4,16.9-22.5,32-40.1,35c-6.4,0.9-14-0.4-20.4-4.1
			c-5.3,10.7-11,20.6-15.5,28.2c-8.7,14.5-21.4,31.1-40.9,30.4c-16.8-0.4-21.5-19.7-21.5-43.3c0-19.3,3.1-41.6,5.5-57.8
			c1.7-10.5,2.8-18.6,2.6-22.3c-0.2-3.3-1.3-5.9-2-7.7c-0.4-0.9-0.7-1.5-0.7-2.6c-0.4-3.3,2.6-4.6,5.9-5.2c4.8-0.7,11.2,0,13.4,0.9
			c7.7,3.9,11.6,12.9,12.2,22.3c0.4,9.8-1.3,22.3-2.9,29.5c-1.8,10.7-4.8,28.7-5.7,42.7c0,0.6-0.2,1.3-0.2,1.8
			c0,2.2-0.2,5.2-0.2,8.1c0,7.2,0.9,15.1,7.2,15.7c7.7,0.7,14.7-9,18.8-15.8c4.8-7.9,10.5-18,17.1-31.1c-6.6-8.7-9.8-22.7-9.8-37.2
			c0-33.1,15.5-71.8,38.7-70.2c10.5,0.7,14.4,7.7,14.4,18.2c0,16.6-10.1,41.8-20.6,64.8l-10.3,21.4c3.7,3.1,8.1,5,12.2,5
			c1.5,0,3.3-0.4,5.2-0.7c12.3-3.1,23.8-14.5,29.8-27.1L676.5,284z M620.3,285.1c0,6.6,0.6,11.6,1.8,14.5l7.5-14.2
			c9-18.2,21.9-47.9,21.9-62.8c0-5.9-1.7-9.6-5.9-10.5C631,208.3,620.3,257.5,620.3,285.1z"/>
		<path class="st3" d="M689,378.6c-25.6,0-35-23.2-35-48.6c0-3.1,0-6.3,0.4-9.6v0.2c3.5-41.1,30.4-89.9,64.5-89.9
			c21.5,0,34.4,20.3,33.3,39.8c-3.1,27.6-36.3,46.4-61.1,51.7c-0.9,4.1-1.5,8.7-2,13.4c-0.2,1.8-0.2,4.2-0.2,6.1
			c0,10.7,2.9,21,14.9,21.9c18.8-0.6,33.5-25.4,42.9-41.1v0.2c5.9-10.1,11-20.6,15.1-28.7c1.8-3.7,4.8-8.8,6.6-12.3
			c1.3-0.6,2.4-0.9,2.8-0.9c2.2,0,3.5,1.5,4.4,3.5l-1.8,4.1c-4.4,9-11.2,22.5-19,35.9C741.6,348.1,723.2,378.6,689,378.6z
			 M733.9,252.7c-14.4,0-36.5,43.8-40.5,59.7c16.6-2.2,48.1-18.2,49.9-40.3c0.6-4.6-0.4-9.2-2.8-14
			C738.7,254.3,736.3,252.7,733.9,252.7z"/>
	</g>
	<g class="st2">
		<path class="st4" d="M155.1,289.9c2.8-3.3,5-8.3,5.9-14.5c3.1-2.4,5.7-4.1,8.5,2.6c0,6.1-2.4,11.6-6.1,18
			c-6.8,10.5-15.7,16.4-25.6,20.1c-6.8,2.6-13.3,3.7-19.7,3.7c-30.9,0-47.3-29.5-47.3-60.6c0-8.7,1.7-18.8,5-28
			c15.5-44.6,56.5-79.4,93-99.1c24.3-12.3,53.6-19.7,78.3-19.7c23,0,44.7,5.3,62.2,16.9c27.4,18.8,39.4,50.6,39.4,83
			c0,53.4-36.8,110.9-89.5,120.6h0.2c2.8,0-3.1,0.4-4.8,0.6h-0.4l12.2,23.6c26.9,52.7,57.3,110.3,112,110.3c8.5,0,9.8-0.2,11.6-0.4
			c0,0,0.2-0.4,0.7-0.6c1.1-0.4,2.4-0.4,3.3,0.9c2.6,3.1-0.9,6.8-2.8,7.4c-12,2.6-23,3.9-33.3,3.9c-79.5,0-109.4-75.5-125.2-131.8
			c-13.4,46.4-33.5,86.2-74.8,86.2c-9.6,0-20.4-2-32.4-7c-3.7-3.9-3.9-7,2.9-9c4.8,1.3,9.4,1.8,14.9,1.8c30.2,0,44.7-31.1,52.7-61.5
			c11-42.9,17.9-98.3,20.8-138.5h-0.2c0-3.9-0.7-8.1-1.5-9.9l-1.1-3.1c0-2.8,3.3-4.2,7.4-4.4c21.9-1.1,26.1,11.6,26.5,25
			c0.4,27.1-3.7,56.2-9.6,92.3c39.6,0.9,64.6-45.7,64.6-91.9c0-44.2-22.8-87.3-78.3-87.3c-13.6,0-31.3,3.3-49.7,9.6
			c-37.4,16.2-72.7,48.8-79.9,91.2c-0.9,4.8-1.3,9.9-1.3,14.7c0,24.7,11.8,47.5,35.7,47.5h5.7c7.5-1.1,14.5-5,19.9-12.2l-0.2,0.2
			L155.1,289.9z"/>
		<path class="st4" d="M367.8,378.6c-25.6,0-35-23.2-35-48.6c0-3.1,0-6.3,0.4-9.6v0.2c3.5-41.1,30.4-89.9,64.4-89.9
			c21.5,0,34.4,20.3,33.3,39.8c-3.1,27.6-36.3,46.4-61.1,51.7c-0.9,4.1-1.5,8.7-2,13.4c-0.2,1.8-0.2,4.2-0.2,6.1
			c0,10.7,2.9,21,14.9,21.9c18.8-0.6,33.5-25.4,42.9-41.1v0.2c5.9-10.1,11-20.6,15.1-28.7c1.8-3.7,4.8-8.8,6.6-12.3
			c1.3-0.6,2.4-0.9,2.8-0.9c2.2,0,3.5,1.5,4.4,3.5l-1.8,4.1c-4.4,9-11.2,22.5-19,35.9C420.5,348.1,402.1,378.6,367.8,378.6z
			 M412.8,252.7c-14.4,0-36.5,43.8-40.5,59.7c16.6-2.2,48.1-18.2,49.9-40.3c0.6-4.6-0.4-9.2-2.8-14
			C417.6,254.3,415.2,252.7,412.8,252.7z"/>
		<path class="st4" d="M471,378.6c-25.6,0-35-23.2-35-48.6c0-3.1,0-6.3,0.4-9.6v0.2c3.5-41.1,30.4-89.9,64.5-89.9
			c21.5,0,34.4,20.3,33.3,39.8c-3.1,27.6-36.3,46.4-61.1,51.7c-0.9,4.1-1.5,8.7-2,13.4c-0.2,1.8-0.2,4.2-0.2,6.1
			c0,10.7,2.9,21,14.9,21.9c18.8-0.6,33.5-25.4,42.9-41.1v0.2c5.9-10.1,11-20.6,15.1-28.7c1.8-3.7,4.8-8.8,6.6-12.3
			c1.3-0.6,2.4-0.9,2.8-0.9c2.2,0,3.5,1.5,4.4,3.5l-1.8,4.1c-4.4,9-11.2,22.5-19,35.9C523.6,348.1,505.2,378.6,471,378.6z
			 M515.9,252.7c-14.4,0-36.5,43.8-40.5,59.7c16.6-2.2,48.1-18.2,49.9-40.3c0.6-4.6-0.4-9.2-2.8-14
			C520.7,254.3,518.3,252.7,515.9,252.7z"/>
		<path class="st4" d="M676.5,284c2.9-2,4.8-1.5,7.9,1.5c-7.4,16.9-22.5,32-40.1,35c-6.4,0.9-14-0.4-20.4-4.1
			c-5.3,10.7-11,20.6-15.5,28.2c-8.7,14.5-21.4,31.1-40.9,30.4c-16.8-0.4-21.5-19.7-21.5-43.3c0-19.3,3.1-41.6,5.5-57.8
			c1.7-10.5,2.8-18.6,2.6-22.3c-0.2-3.3-1.3-5.9-2-7.7c-0.4-0.9-0.7-1.5-0.7-2.6c-0.4-3.3,2.6-4.6,5.9-5.2c4.8-0.7,11.2,0,13.4,0.9
			c7.7,3.9,11.6,12.9,12.2,22.3c0.4,9.8-1.3,22.3-2.9,29.5c-1.8,10.7-4.8,28.7-5.7,42.7c0,0.6-0.2,1.3-0.2,1.8
			c0,2.2-0.2,5.2-0.2,8.1c0,7.2,0.9,15.1,7.2,15.7c7.7,0.7,14.7-9,18.8-15.8c4.8-7.9,10.5-18,17.1-31.1c-6.6-8.7-9.8-22.7-9.8-37.2
			c0-33.1,15.5-71.8,38.7-70.2c10.5,0.7,14.4,7.7,14.4,18.2c0,16.6-10.1,41.8-20.6,64.8l-10.3,21.4c3.7,3.1,8.1,5,12.2,5
			c1.5,0,3.3-0.4,5.2-0.7c12.3-3.1,23.8-14.5,29.8-27.1L676.5,284z M620.3,285.1c0,6.6,0.6,11.6,1.8,14.5l7.5-14.2
			c9-18.2,21.9-47.9,21.9-62.8c0-5.9-1.7-9.6-5.9-10.5C631,208.3,620.3,257.5,620.3,285.1z"/>
		<path class="st4" d="M689,378.6c-25.6,0-35-23.2-35-48.6c0-3.1,0-6.3,0.4-9.6v0.2c3.5-41.1,30.4-89.9,64.5-89.9
			c21.5,0,34.4,20.3,33.3,39.8c-3.1,27.6-36.3,46.4-61.1,51.7c-0.9,4.1-1.5,8.7-2,13.4c-0.2,1.8-0.2,4.2-0.2,6.1
			c0,10.7,2.9,21,14.9,21.9c18.8-0.6,33.5-25.4,42.9-41.1v0.2c5.9-10.1,11-20.6,15.1-28.7c1.8-3.7,4.8-8.8,6.6-12.3
			c1.3-0.6,2.4-0.9,2.8-0.9c2.2,0,3.5,1.5,4.4,3.5l-1.8,4.1c-4.4,9-11.2,22.5-19,35.9C741.6,348.1,723.2,378.6,689,378.6z
			 M733.9,252.7c-14.4,0-36.5,43.8-40.5,59.7c16.6-2.2,48.1-18.2,49.9-40.3c0.6-4.6-0.4-9.2-2.8-14
			C738.7,254.3,736.3,252.7,733.9,252.7z"/>
	</g>
</g>
</svg>
